<svg width="1350" height="467" viewBox="0 0 1350 467" fill="none" xmlns="http://www.w3.org/2000/svg">
    <path d="M216.5 466.747C201.211 465.617 186.331 463.018 172 459.09V7.69393C182.606 4.78718 193.512 2.60795 204.662 1.21326L251 218.392V0C266.999 1.14865 282.553 3.90576 297.5 8.11046V458.673C285.989 461.911 274.119 464.291 261.963 465.738L216.5 256.892V466.747Z" fill="white" />
    <path d="M445.271 334.12C422.239 382.34 383.186 421.441 335 444.533V396.892C339.8 395.692 361.667 376.392 372 366.892V97.3919C365.2 89.7919 356.833 84.8919 353.5 83.3919V269.892H318V14.9211C405.737 48.6768 468 133.763 468 233.392C468 245.808 467.033 257.999 465.17 269.892H423C433.8 204.292 416.167 159.892 406 145.892V319.892L415.5 298.892L445.271 334.12Z" fill="white" />
    <path d="M2.16986 265.392H45.5C51.5 318.192 87.6667 361.059 105 375.892V233.392H0C0 134.142 61.7901 49.3243 149 15.3084V154.892H105V90.8919C65.4 125.292 48.8333 171.225 45.5 189.892H148.5V451.28C71.0817 420.877 13.7953 350.404 2.16986 265.392Z" fill="white" />
    <path d="M668.048 216.296C655.952 216.296 645.104 214.28 635.504 210.248C625.904 206.024 618.32 200.264 612.752 192.968C607.184 185.48 604.112 176.936 603.536 167.336H630.608C631.376 175.208 635.024 181.64 641.552 186.632C648.272 191.624 657.008 194.12 667.76 194.12C677.744 194.12 685.616 191.912 691.376 187.496C697.136 183.08 700.016 177.512 700.016 170.792C700.016 163.88 696.944 158.792 690.8 155.528C684.656 152.072 675.152 148.712 662.288 145.448C650.576 142.376 640.976 139.304 633.488 136.232C626.192 132.968 619.856 128.264 614.48 122.12C609.296 115.784 606.704 107.528 606.704 97.352C606.704 89.288 609.104 81.896 613.904 75.176C618.704 68.456 625.52 63.176 634.352 59.336C643.184 55.304 653.264 53.288 664.592 53.288C682.064 53.288 696.176 57.704 706.928 66.536C717.68 75.368 723.44 87.464 724.208 102.824H698C697.424 94.568 694.064 87.944 687.92 82.952C681.968 77.96 673.904 75.464 663.728 75.464C654.32 75.464 646.832 77.48 641.264 81.512C635.696 85.544 632.912 90.824 632.912 97.352C632.912 102.536 634.544 106.856 637.808 110.312C641.264 113.576 645.488 116.264 650.48 118.376C655.664 120.296 662.768 122.504 671.792 125C683.12 128.072 692.336 131.144 699.44 134.216C706.544 137.096 712.592 141.512 717.584 147.464C722.768 153.416 725.456 161.192 725.648 170.792C725.648 179.432 723.248 187.208 718.448 194.12C713.648 201.032 706.832 206.504 698 210.536C689.36 214.376 679.376 216.296 668.048 216.296Z" fill="white" />
    <path d="M801.237 216.296C786.453 216.296 773.013 212.936 760.917 206.216C749.013 199.496 739.605 189.992 732.693 177.704C725.973 165.224 722.613 150.824 722.613 134.504C722.613 118.376 726.069 104.168 732.981 91.88C740.085 79.4 749.685 69.896 761.781 63.368C773.877 56.648 787.413 53.288 802.389 53.288C817.365 53.288 830.901 56.648 842.997 63.368C855.093 69.896 864.597 79.304 871.509 91.592C878.613 103.88 882.165 118.184 882.165 134.504C882.165 150.824 878.517 165.224 871.221 177.704C864.117 189.992 854.421 199.496 842.133 206.216C829.845 212.936 816.213 216.296 801.237 216.296ZM801.237 193.256C810.645 193.256 819.477 191.048 827.733 186.632C835.989 182.216 842.613 175.592 847.605 166.76C852.789 157.928 855.381 147.176 855.381 134.504C855.381 121.832 852.885 111.08 847.893 102.248C842.901 93.416 836.373 86.888 828.309 82.664C820.245 78.248 811.509 76.04 802.101 76.04C792.501 76.04 783.669 78.248 775.605 82.664C767.733 86.888 761.397 93.416 756.597 102.248C751.797 111.08 749.397 121.832 749.397 134.504C749.397 147.368 751.701 158.216 756.309 167.048C761.109 175.88 767.445 182.504 775.317 186.92C783.189 191.144 791.829 193.256 801.237 193.256Z" fill="white" />
    <path d="M1076.18 53C1088.46 53 1099.41 55.592 1109.01 60.776C1118.61 65.768 1126.19 73.352 1131.76 83.528C1137.33 93.704 1140.11 106.088 1140.11 120.68V213.704H1114.19V124.424C1114.19 108.68 1110.26 96.68 1102.38 88.424C1094.7 79.976 1084.24 75.752 1070.99 75.752C1057.36 75.752 1046.51 80.168 1038.45 89C1030.38 97.64 1026.35 110.216 1026.35 126.728V213.704H1000.43V124.424C1000.43 108.68 996.496 96.68 988.624 88.424C980.944 79.976 970.48 75.752 957.232 75.752C943.6 75.752 932.751 80.168 924.688 89C916.624 97.64 912.591 110.216 912.591 126.728V213.704H886.384V55.88H912.591V78.632C917.775 70.376 924.688 64.04 933.328 59.624C942.16 55.208 951.856 53 962.416 53C975.664 53 987.376 55.976 997.552 61.928C1007.73 67.88 1015.31 76.616 1020.3 88.136C1024.72 77 1032.02 68.36 1042.19 62.216C1052.37 56.072 1063.7 53 1076.18 53Z" fill="white" />
    <path d="M689.072 250C708.272 250 723.824 255.856 735.728 267.568C747.632 279.088 753.584 295.792 753.584 317.68V410.704H727.664V321.424C727.664 305.68 723.728 293.68 715.856 285.424C707.984 276.976 697.232 272.752 683.6 272.752C669.776 272.752 658.736 277.072 650.48 285.712C642.416 294.352 638.384 306.928 638.384 323.44V410.704H612.176V252.88H638.384V275.344C643.568 267.28 650.576 261.04 659.408 256.624C668.432 252.208 678.32 250 689.072 250Z" fill="white" />
    <path d="M834.987 413.296C820.203 413.296 806.763 409.936 794.667 403.216C782.763 396.496 773.355 386.992 766.443 374.704C759.723 362.224 756.363 347.824 756.363 331.504C756.363 315.376 759.819 301.168 766.731 288.88C773.835 276.4 783.435 266.896 795.531 260.368C807.627 253.648 821.163 250.288 836.139 250.288C851.115 250.288 864.651 253.648 876.747 260.368C888.843 266.896 898.347 276.304 905.259 288.592C912.363 300.88 915.915 315.184 915.915 331.504C915.915 347.824 912.267 362.224 904.971 374.704C897.867 386.992 888.171 396.496 875.883 403.216C863.595 409.936 849.963 413.296 834.987 413.296ZM834.987 390.256C844.395 390.256 853.227 388.048 861.483 383.632C869.739 379.216 876.363 372.592 881.355 363.76C886.539 354.928 889.131 344.176 889.131 331.504C889.131 318.832 886.635 308.08 881.643 299.248C876.651 290.416 870.123 283.888 862.059 279.664C853.995 275.248 845.259 273.04 835.851 273.04C826.251 273.04 817.419 275.248 809.355 279.664C801.483 283.888 795.147 290.416 790.347 299.248C785.547 308.08 783.147 318.832 783.147 331.504C783.147 344.368 785.451 355.216 790.059 364.048C794.859 372.88 801.195 379.504 809.067 383.92C816.939 388.144 825.579 390.256 834.987 390.256Z" fill="white" />
    <path d="M952.102 274.48V367.504C952.102 375.184 953.733 380.656 956.997 383.92C960.261 386.992 965.926 388.528 973.99 388.528H993.286V410.704H969.669C955.077 410.704 944.134 407.344 936.838 400.624C929.542 393.904 925.893 382.864 925.893 367.504V274.48H905.445V252.88H925.893V213.136H952.102V252.88H993.286V274.48H952.102Z" fill="white" />
    <path d="M985.008 331.216C985.008 315.088 988.272 300.976 994.8 288.88C1001.33 276.592 1010.26 267.088 1021.58 260.368C1033.1 253.648 1045.87 250.288 1059.89 250.288C1073.71 250.288 1085.71 253.264 1095.89 259.216C1106.06 265.168 1113.65 272.656 1118.64 281.68V252.88H1145.14V410.704H1118.64V381.328C1113.46 390.544 1105.68 398.224 1095.31 404.368C1085.14 410.32 1073.23 413.296 1059.6 413.296C1045.58 413.296 1032.91 409.84 1021.58 402.928C1010.26 396.016 1001.33 386.32 994.8 373.84C988.272 361.36 985.008 347.152 985.008 331.216ZM1118.64 331.504C1118.64 319.6 1116.24 309.232 1111.44 300.4C1106.64 291.568 1100.11 284.848 1091.86 280.24C1083.79 275.44 1074.86 273.04 1065.07 273.04C1055.28 273.04 1046.35 275.344 1038.29 279.952C1030.22 284.56 1023.79 291.28 1018.99 300.112C1014.19 308.944 1011.79 319.312 1011.79 331.216C1011.79 343.312 1014.19 353.872 1018.99 362.896C1023.79 371.728 1030.22 378.544 1038.29 383.344C1046.35 387.952 1055.28 390.256 1065.07 390.256C1074.86 390.256 1083.79 387.952 1091.86 383.344C1100.11 378.544 1106.64 371.728 1111.44 362.896C1116.24 353.872 1118.64 343.408 1118.64 331.504Z" fill="white" />
    <path d="M1185.39 197.584V410.704H1159.18V197.584H1185.39Z" fill="white" />
    <path d="M1268.65 413.296C1253.87 413.296 1240.43 409.936 1228.33 403.216C1216.43 396.496 1207.02 386.992 1200.11 374.704C1193.39 362.224 1190.03 347.824 1190.03 331.504C1190.03 315.376 1193.48 301.168 1200.4 288.88C1207.5 276.4 1217.1 266.896 1229.2 260.368C1241.29 253.648 1254.83 250.288 1269.8 250.288C1284.78 250.288 1298.32 253.648 1310.41 260.368C1322.51 266.896 1332.01 276.304 1338.92 288.592C1346.03 300.88 1349.58 315.184 1349.58 331.504C1349.58 347.824 1345.93 362.224 1338.64 374.704C1331.53 386.992 1321.84 396.496 1309.55 403.216C1297.26 409.936 1283.63 413.296 1268.65 413.296ZM1268.65 390.256C1278.06 390.256 1286.89 388.048 1295.15 383.632C1303.4 379.216 1310.03 372.592 1315.02 363.76C1320.2 354.928 1322.8 344.176 1322.8 331.504C1322.8 318.832 1320.3 308.08 1315.31 299.248C1310.32 290.416 1303.79 283.888 1295.72 279.664C1287.66 275.248 1278.92 273.04 1269.52 273.04C1259.92 273.04 1251.08 275.248 1243.02 279.664C1235.15 283.888 1228.81 290.416 1224.01 299.248C1219.21 308.08 1216.81 318.832 1216.81 331.504C1216.81 344.368 1219.12 355.216 1223.72 364.048C1228.52 372.88 1234.86 379.504 1242.73 383.92C1250.6 388.144 1259.24 390.256 1268.65 390.256Z" fill="white" />
</svg>
    